# xmcd
#
# Track frame offsets: 
#        150
#        21697
#        49972
#        92425
#        109442
#        127577
#        143235
#        172602
#        190695
#        209912
#
# Disc length: 3161 seconds
#
# Revision: 2
# Processed by: cddbd v1.5.2PL0 Copyright (c) Steve Scherf et al.
# Submitted via: ExactAudioCopy v1.0b3
#
DISCID=8b0c570a
DTITLE=R.J. Mischo - Rough 'n' Tough
DYEAR=1996
DGENRE=Blues
TTITLE0=Juke
TTITLE1=When This Is Over
TTITLE2=Keep Your Hands Out Of My Pocket
TTITLE3=Satisfied
TTITLE4=Stop Right Now
TTITLE5=I'm Gonna Love You
TTITLE6=I Love My Baby
TTITLE7=I Don't Care
TTITLE8=This Harp In My Hand
TTITLE9=R.J.'s Jump
EXTD=
EXTT0=
EXTT1=
EXTT2=
EXTT3=
EXTT4=
EXTT5=
EXTT6=
EXTT7=
EXTT8=
EXTT9=
PLAYORDER=
